<svg width="250" height="59" viewBox="0 0 250 59" fill="none" xmlns="http://www.w3.org/2000/svg">
<g clip-path="url(#clip0_13_10)">
<g filter="url(#filter0_d_13_10)">
<circle cx="31" cy="29" r="22" transform="rotate(-90 31 29)" fill="url(#paint0_linear_13_10)"/>
</g>
<g filter="url(#filter1_d_13_10)">
<path d="M83.012 46.7C81.856 46.7 80.887 46.411 80.105 45.833C79.357 45.221 78.83 44.405 78.524 43.385C78.252 42.433 78.082 41.396 78.014 40.274C77.98 39.152 77.963 37.571 77.963 35.531C77.963 33.627 77.878 32.216 77.708 31.298C77.572 30.38 77.215 29.921 76.637 29.921C75.957 29.921 75.481 30.227 75.209 30.839C74.937 31.417 74.801 32.25 74.801 33.338C74.801 34.324 74.937 35.871 75.209 37.979C75.243 38.387 75.311 39.033 75.413 39.917C75.515 40.801 75.566 41.532 75.566 42.11C75.566 43.742 75.192 44.898 74.444 45.578C73.73 46.258 72.676 46.598 71.282 46.598C69.616 46.598 68.171 45.697 66.947 43.895C65.723 42.093 64.805 39.849 64.193 37.163C63.581 34.443 63.275 31.774 63.275 29.156C63.275 26.028 63.717 23.121 64.601 20.435C65.519 17.749 66.879 15.59 68.681 13.958C70.517 12.326 72.727 11.51 75.311 11.51C77.487 11.51 79.221 12.19 80.513 13.55C81.805 14.876 82.672 16.491 83.114 18.395C83.488 16.525 84.321 14.91 85.613 13.55C86.939 12.19 88.673 11.51 90.815 11.51C93.365 11.51 95.541 12.309 97.343 13.907C99.179 15.471 100.573 17.664 101.525 20.486C102.511 23.308 103.004 26.572 103.004 30.278C103.004 32.692 102.664 35.191 101.984 37.775C101.304 40.325 100.352 42.45 99.128 44.15C97.904 45.85 96.51 46.7 94.946 46.7C93.518 46.7 92.43 46.343 91.682 45.629C90.934 44.915 90.56 43.742 90.56 42.11C90.56 41.362 90.696 39.968 90.968 37.928C91.24 35.752 91.376 34.188 91.376 33.236C91.376 31.026 90.781 29.921 89.591 29.921C88.979 29.921 88.588 30.414 88.418 31.4C88.282 32.386 88.197 33.984 88.163 36.194C88.163 37.86 88.129 39.254 88.061 40.376C87.993 41.464 87.84 42.467 87.602 43.385C87.33 44.371 86.786 45.17 85.97 45.782C85.188 46.394 84.202 46.7 83.012 46.7Z" fill="url(#paint1_linear_13_10)"/>
<path d="M130.012 38.54C131.644 39.05 132.46 40.121 132.46 41.753C132.46 43.283 131.678 44.49 130.114 45.374C128.55 46.258 125.847 46.7 122.005 46.7C117.211 46.7 113.097 45.544 109.663 43.232C106.263 40.92 104.563 36.33 104.563 29.462C104.563 25.994 105.158 22.866 106.348 20.078C107.538 17.29 109.306 15.08 111.652 13.448C114.032 11.816 116.939 11 120.373 11C124.963 11 128.193 11.714 130.063 13.142C131.933 14.536 132.868 16.253 132.868 18.293C132.868 19.245 132.63 20.129 132.154 20.945C131.678 21.727 130.964 22.339 130.012 22.781C129.196 23.189 128.142 23.393 126.85 23.393L125.473 23.342C125.201 23.308 124.81 23.291 124.3 23.291C122.532 23.291 121.138 23.614 120.118 24.26C119.098 24.872 118.401 25.824 118.027 27.116C119.455 27.048 120.747 27.014 121.903 27.014C125.337 27.014 127.564 27.116 128.584 27.32C129.74 27.558 130.624 28.017 131.236 28.697C131.882 29.377 132.205 30.176 132.205 31.094C132.205 32.012 131.899 32.811 131.287 33.491C130.675 34.137 129.757 34.579 128.533 34.817C127.581 35.021 125.269 35.123 121.597 35.123C120.101 35.123 119.047 35.106 118.435 35.072C119.489 37.316 121.461 38.438 124.351 38.438C124.521 38.438 124.912 38.404 125.524 38.336C126.34 38.268 127.037 38.234 127.615 38.234C128.601 38.234 129.4 38.336 130.012 38.54Z" fill="url(#paint2_linear_13_10)"/>
<path d="M149.62 46.7C146.186 46.7 143.279 46.003 140.899 44.609C138.519 43.181 136.955 41.056 136.207 38.234C135.901 37.078 135.697 35.667 135.595 34.001C135.493 32.335 135.442 30.21 135.442 27.626C135.442 22.56 135.986 18.531 137.074 15.539C138.196 12.513 140.406 11 143.704 11C145.744 11 147.342 11.714 148.498 13.142C149.688 14.57 150.283 16.338 150.283 18.446C150.283 20.69 150.096 23.087 149.722 25.637C149.348 28.187 148.821 31.281 148.141 34.919C150.249 34.239 152.561 33.899 155.077 33.899C157.695 33.899 159.871 34.375 161.605 35.327C163.373 36.279 164.257 37.826 164.257 39.968C164.257 42.042 163.577 43.572 162.217 44.558C160.857 45.544 159.208 46.156 157.27 46.394C155.332 46.598 152.782 46.7 149.62 46.7Z" fill="url(#paint3_linear_13_10)"/>
<path d="M173.779 46.802C171.501 46.802 169.665 45.697 168.271 43.487C166.911 41.243 166.112 38.217 165.874 34.409C165.84 33.865 165.823 33.066 165.823 32.012C165.823 27.898 166.503 24.26 167.863 21.098C169.223 17.902 171.144 15.437 173.626 13.703C176.142 11.935 179.066 11.051 182.398 11.051C185.73 11.051 188.637 11.935 191.119 13.703C193.635 15.437 195.556 17.885 196.882 21.047C198.242 24.209 198.922 27.864 198.922 32.012C198.922 33.066 198.905 33.865 198.871 34.409C198.633 38.285 197.834 41.311 196.474 43.487C195.114 45.663 193.278 46.751 190.966 46.751C189.096 46.751 187.787 46.241 187.039 45.221C186.325 44.201 185.968 42.96 185.968 41.498C185.968 40.818 186.019 40.223 186.121 39.713C184.353 39.781 182.789 39.815 181.429 39.815C180.579 39.815 179.644 39.781 178.624 39.713C178.726 40.223 178.777 40.818 178.777 41.498C178.777 42.994 178.403 44.252 177.655 45.272C176.941 46.292 175.649 46.802 173.779 46.802ZM178.267 30.635C180.103 30.567 181.446 30.533 182.296 30.533C183.214 30.533 184.557 30.567 186.325 30.635C186.393 30.261 186.427 29.7 186.427 28.952C186.427 27.354 186.087 26.062 185.407 25.076C184.727 24.056 183.673 23.546 182.245 23.546C180.851 23.546 179.814 24.039 179.134 25.025C178.454 26.011 178.114 27.286 178.114 28.85C178.114 29.428 178.165 30.023 178.267 30.635Z" fill="url(#paint4_linear_13_10)"/>
<path d="M220.224 46.7C219.068 46.7 218.099 46.411 217.317 45.833C216.569 45.221 216.042 44.405 215.736 43.385C215.464 42.433 215.294 41.396 215.226 40.274C215.192 39.152 215.175 37.571 215.175 35.531C215.175 33.627 215.09 32.216 214.92 31.298C214.784 30.38 214.427 29.921 213.849 29.921C213.169 29.921 212.693 30.227 212.421 30.839C212.149 31.417 212.013 32.25 212.013 33.338C212.013 34.324 212.149 35.871 212.421 37.979C212.455 38.387 212.523 39.033 212.625 39.917C212.727 40.801 212.778 41.532 212.778 42.11C212.778 43.742 212.404 44.898 211.656 45.578C210.942 46.258 209.888 46.598 208.494 46.598C206.828 46.598 205.383 45.697 204.159 43.895C202.935 42.093 202.017 39.849 201.405 37.163C200.793 34.443 200.487 31.774 200.487 29.156C200.487 26.028 200.929 23.121 201.813 20.435C202.731 17.749 204.091 15.59 205.893 13.958C207.729 12.326 209.939 11.51 212.523 11.51C214.699 11.51 216.433 12.19 217.725 13.55C219.017 14.876 219.884 16.491 220.326 18.395C220.7 16.525 221.533 14.91 222.825 13.55C224.151 12.19 225.885 11.51 228.027 11.51C230.577 11.51 232.753 12.309 234.555 13.907C236.391 15.471 237.785 17.664 238.737 20.486C239.723 23.308 240.216 26.572 240.216 30.278C240.216 32.692 239.876 35.191 239.196 37.775C238.516 40.325 237.564 42.45 236.34 44.15C235.116 45.85 233.722 46.7 232.158 46.7C230.73 46.7 229.642 46.343 228.894 45.629C228.146 44.915 227.772 43.742 227.772 42.11C227.772 41.362 227.908 39.968 228.18 37.928C228.452 35.752 228.588 34.188 228.588 33.236C228.588 31.026 227.993 29.921 226.803 29.921C226.191 29.921 225.8 30.414 225.63 31.4C225.494 32.386 225.409 33.984 225.375 36.194C225.375 37.86 225.341 39.254 225.273 40.376C225.205 41.464 225.052 42.467 224.814 43.385C224.542 44.371 223.998 45.17 223.182 45.782C222.4 46.394 221.414 46.7 220.224 46.7Z" fill="url(#paint5_linear_13_10)"/>
</g>
<rect x="33" y="39" width="5" height="20" rx="2.5" transform="rotate(180 33 39)" fill="white"/>
<rect x="42" y="33.5455" width="5" height="9.09091" rx="2.5" transform="rotate(180 42 33.5455)" fill="white"/>
<rect x="24" y="33.5455" width="5" height="9.09091" rx="2.5" transform="rotate(180 24 33.5455)" fill="white"/>
</g>
<defs>
<filter id="filter0_d_13_10" x="-1" y="-3" width="64" height="64" filterUnits="userSpaceOnUse" color-interpolation-filters="sRGB">
<feFlood flood-opacity="0" result="BackgroundImageFix"/>
<feColorMatrix in="SourceAlpha" type="matrix" values="0 0 0 0 0 0 0 0 0 0 0 0 0 0 0 0 0 0 127 0" result="hardAlpha"/>
<feOffset/>
<feGaussianBlur stdDeviation="5"/>
<feComposite in2="hardAlpha" operator="out"/>
<feColorMatrix type="matrix" values="0 0 0 0 0.968627 0 0 0 0 0.537255 0 0 0 0 0.243137 0 0 0 1 0"/>
<feBlend mode="normal" in2="BackgroundImageFix" result="effect1_dropShadow_13_10"/>
<feBlend mode="normal" in="SourceGraphic" in2="effect1_dropShadow_13_10" result="shape"/>
</filter>
<filter id="filter1_d_13_10" x="53.275" y="1" width="196.941" height="55.802" filterUnits="userSpaceOnUse" color-interpolation-filters="sRGB">
<feFlood flood-opacity="0" result="BackgroundImageFix"/>
<feColorMatrix in="SourceAlpha" type="matrix" values="0 0 0 0 0 0 0 0 0 0 0 0 0 0 0 0 0 0 127 0" result="hardAlpha"/>
<feOffset/>
<feGaussianBlur stdDeviation="5"/>
<feComposite in2="hardAlpha" operator="out"/>
<feColorMatrix type="matrix" values="0 0 0 0 0.968627 0 0 0 0 0.533333 0 0 0 0 0.243137 0 0 0 1 0"/>
<feBlend mode="normal" in2="BackgroundImageFix" result="effect1_dropShadow_13_10"/>
<feBlend mode="normal" in="SourceGraphic" in2="effect1_dropShadow_13_10" result="shape"/>
</filter>
<linearGradient id="paint0_linear_13_10" x1="9.10347" y1="25.4913" x2="54.9718" y2="25.6437" gradientUnits="userSpaceOnUse">
<stop stop-color="#EC5540"/>
<stop offset="1" stop-color="#F98C3E"/>
</linearGradient>
<linearGradient id="paint1_linear_13_10" x1="63.6911" y1="26.0461" x2="248.098" y2="29.0734" gradientUnits="userSpaceOnUse">
<stop stop-color="#EC5540"/>
<stop offset="1" stop-color="#F98C3E"/>
</linearGradient>
<linearGradient id="paint2_linear_13_10" x1="63.6911" y1="26.0461" x2="248.098" y2="29.0734" gradientUnits="userSpaceOnUse">
<stop stop-color="#EC5540"/>
<stop offset="1" stop-color="#F98C3E"/>
</linearGradient>
<linearGradient id="paint3_linear_13_10" x1="63.6911" y1="26.0461" x2="248.098" y2="29.0734" gradientUnits="userSpaceOnUse">
<stop stop-color="#EC5540"/>
<stop offset="1" stop-color="#F98C3E"/>
</linearGradient>
<linearGradient id="paint4_linear_13_10" x1="63.6911" y1="26.0461" x2="248.098" y2="29.0734" gradientUnits="userSpaceOnUse">
<stop stop-color="#EC5540"/>
<stop offset="1" stop-color="#F98C3E"/>
</linearGradient>
<linearGradient id="paint5_linear_13_10" x1="63.6911" y1="26.0461" x2="248.098" y2="29.0734" gradientUnits="userSpaceOnUse">
<stop stop-color="#EC5540"/>
<stop offset="1" stop-color="#F98C3E"/>
</linearGradient>
<clipPath id="clip0_13_10">
<rect width="250" height="59" fill="white"/>
</clipPath>
</defs>
</svg>
