<svg width="231" height="44" viewBox="0 0 231 44" fill="none" xmlns="http://www.w3.org/2000/svg">
<g clip-path="url(#clip0_4_2)">
<circle cx="22" cy="22" r="22" transform="rotate(-90 22 22)" fill="url(#paint0_linear_4_2)"/>
<path d="M74.012 39.7C72.856 39.7 71.887 39.411 71.105 38.833C70.357 38.221 69.83 37.405 69.524 36.385C69.252 35.433 69.082 34.396 69.014 33.274C68.98 32.152 68.963 30.571 68.963 28.531C68.963 26.627 68.878 25.216 68.708 24.298C68.572 23.38 68.215 22.921 67.637 22.921C66.957 22.921 66.481 23.227 66.209 23.839C65.937 24.417 65.801 25.25 65.801 26.338C65.801 27.324 65.937 28.871 66.209 30.979C66.243 31.387 66.311 32.033 66.413 32.917C66.515 33.801 66.566 34.532 66.566 35.11C66.566 36.742 66.192 37.898 65.444 38.578C64.73 39.258 63.676 39.598 62.282 39.598C60.616 39.598 59.171 38.697 57.947 36.895C56.723 35.093 55.805 32.849 55.193 30.163C54.581 27.443 54.275 24.774 54.275 22.156C54.275 19.028 54.717 16.121 55.601 13.435C56.519 10.749 57.879 8.59 59.681 6.958C61.517 5.326 63.727 4.51 66.311 4.51C68.487 4.51 70.221 5.19 71.513 6.55C72.805 7.876 73.672 9.491 74.114 11.395C74.488 9.525 75.321 7.91 76.613 6.55C77.939 5.19 79.673 4.51 81.815 4.51C84.365 4.51 86.541 5.309 88.343 6.907C90.179 8.471 91.573 10.664 92.525 13.486C93.511 16.308 94.004 19.572 94.004 23.278C94.004 25.692 93.664 28.191 92.984 30.775C92.304 33.325 91.352 35.45 90.128 37.15C88.904 38.85 87.51 39.7 85.946 39.7C84.518 39.7 83.43 39.343 82.682 38.629C81.934 37.915 81.56 36.742 81.56 35.11C81.56 34.362 81.696 32.968 81.968 30.928C82.24 28.752 82.376 27.188 82.376 26.236C82.376 24.026 81.781 22.921 80.591 22.921C79.979 22.921 79.588 23.414 79.418 24.4C79.282 25.386 79.197 26.984 79.163 29.194C79.163 30.86 79.129 32.254 79.061 33.376C78.993 34.464 78.84 35.467 78.602 36.385C78.33 37.371 77.786 38.17 76.97 38.782C76.188 39.394 75.202 39.7 74.012 39.7Z" fill="url(#paint1_linear_4_2)"/>
<path d="M121.012 31.54C122.644 32.05 123.46 33.121 123.46 34.753C123.46 36.283 122.678 37.49 121.114 38.374C119.55 39.258 116.847 39.7 113.005 39.7C108.211 39.7 104.097 38.544 100.663 36.232C97.2631 33.92 95.5631 29.33 95.5631 22.462C95.5631 18.994 96.1581 15.866 97.3481 13.078C98.5381 10.29 100.306 8.08 102.652 6.448C105.032 4.816 107.939 4 111.373 4C115.963 4 119.193 4.714 121.063 6.142C122.933 7.536 123.868 9.253 123.868 11.293C123.868 12.245 123.63 13.129 123.154 13.945C122.678 14.727 121.964 15.339 121.012 15.781C120.196 16.189 119.142 16.393 117.85 16.393L116.473 16.342C116.201 16.308 115.81 16.291 115.3 16.291C113.532 16.291 112.138 16.614 111.118 17.26C110.098 17.872 109.401 18.824 109.027 20.116C110.455 20.048 111.747 20.014 112.903 20.014C116.337 20.014 118.564 20.116 119.584 20.32C120.74 20.558 121.624 21.017 122.236 21.697C122.882 22.377 123.205 23.176 123.205 24.094C123.205 25.012 122.899 25.811 122.287 26.491C121.675 27.137 120.757 27.579 119.533 27.817C118.581 28.021 116.269 28.123 112.597 28.123C111.101 28.123 110.047 28.106 109.435 28.072C110.489 30.316 112.461 31.438 115.351 31.438C115.521 31.438 115.912 31.404 116.524 31.336C117.34 31.268 118.037 31.234 118.615 31.234C119.601 31.234 120.4 31.336 121.012 31.54Z" fill="url(#paint2_linear_4_2)"/>
<path d="M140.62 39.7C137.186 39.7 134.279 39.003 131.899 37.609C129.519 36.181 127.955 34.056 127.207 31.234C126.901 30.078 126.697 28.667 126.595 27.001C126.493 25.335 126.442 23.21 126.442 20.626C126.442 15.56 126.986 11.531 128.074 8.539C129.196 5.513 131.406 4 134.704 4C136.744 4 138.342 4.714 139.498 6.142C140.688 7.57 141.283 9.338 141.283 11.446C141.283 13.69 141.096 16.087 140.722 18.637C140.348 21.187 139.821 24.281 139.141 27.919C141.249 27.239 143.561 26.899 146.077 26.899C148.695 26.899 150.871 27.375 152.605 28.327C154.373 29.279 155.257 30.826 155.257 32.968C155.257 35.042 154.577 36.572 153.217 37.558C151.857 38.544 150.208 39.156 148.27 39.394C146.332 39.598 143.782 39.7 140.62 39.7Z" fill="url(#paint3_linear_4_2)"/>
<path d="M164.779 39.802C162.501 39.802 160.665 38.697 159.271 36.487C157.911 34.243 157.112 31.217 156.874 27.409C156.84 26.865 156.823 26.066 156.823 25.012C156.823 20.898 157.503 17.26 158.863 14.098C160.223 10.902 162.144 8.437 164.626 6.703C167.142 4.935 170.066 4.051 173.398 4.051C176.73 4.051 179.637 4.935 182.119 6.703C184.635 8.437 186.556 10.885 187.882 14.047C189.242 17.209 189.922 20.864 189.922 25.012C189.922 26.066 189.905 26.865 189.871 27.409C189.633 31.285 188.834 34.311 187.474 36.487C186.114 38.663 184.278 39.751 181.966 39.751C180.096 39.751 178.787 39.241 178.039 38.221C177.325 37.201 176.968 35.96 176.968 34.498C176.968 33.818 177.019 33.223 177.121 32.713C175.353 32.781 173.789 32.815 172.429 32.815C171.579 32.815 170.644 32.781 169.624 32.713C169.726 33.223 169.777 33.818 169.777 34.498C169.777 35.994 169.403 37.252 168.655 38.272C167.941 39.292 166.649 39.802 164.779 39.802ZM169.267 23.635C171.103 23.567 172.446 23.533 173.296 23.533C174.214 23.533 175.557 23.567 177.325 23.635C177.393 23.261 177.427 22.7 177.427 21.952C177.427 20.354 177.087 19.062 176.407 18.076C175.727 17.056 174.673 16.546 173.245 16.546C171.851 16.546 170.814 17.039 170.134 18.025C169.454 19.011 169.114 20.286 169.114 21.85C169.114 22.428 169.165 23.023 169.267 23.635Z" fill="url(#paint4_linear_4_2)"/>
<path d="M211.224 39.7C210.068 39.7 209.099 39.411 208.317 38.833C207.569 38.221 207.042 37.405 206.736 36.385C206.464 35.433 206.294 34.396 206.226 33.274C206.192 32.152 206.175 30.571 206.175 28.531C206.175 26.627 206.09 25.216 205.92 24.298C205.784 23.38 205.427 22.921 204.849 22.921C204.169 22.921 203.693 23.227 203.421 23.839C203.149 24.417 203.013 25.25 203.013 26.338C203.013 27.324 203.149 28.871 203.421 30.979C203.455 31.387 203.523 32.033 203.625 32.917C203.727 33.801 203.778 34.532 203.778 35.11C203.778 36.742 203.404 37.898 202.656 38.578C201.942 39.258 200.888 39.598 199.494 39.598C197.828 39.598 196.383 38.697 195.159 36.895C193.935 35.093 193.017 32.849 192.405 30.163C191.793 27.443 191.487 24.774 191.487 22.156C191.487 19.028 191.929 16.121 192.813 13.435C193.731 10.749 195.091 8.59 196.893 6.958C198.729 5.326 200.939 4.51 203.523 4.51C205.699 4.51 207.433 5.19 208.725 6.55C210.017 7.876 210.884 9.491 211.326 11.395C211.7 9.525 212.533 7.91 213.825 6.55C215.151 5.19 216.885 4.51 219.027 4.51C221.577 4.51 223.753 5.309 225.555 6.907C227.391 8.471 228.785 10.664 229.737 13.486C230.723 16.308 231.216 19.572 231.216 23.278C231.216 25.692 230.876 28.191 230.196 30.775C229.516 33.325 228.564 35.45 227.34 37.15C226.116 38.85 224.722 39.7 223.158 39.7C221.73 39.7 220.642 39.343 219.894 38.629C219.146 37.915 218.772 36.742 218.772 35.11C218.772 34.362 218.908 32.968 219.18 30.928C219.452 28.752 219.588 27.188 219.588 26.236C219.588 24.026 218.993 22.921 217.803 22.921C217.191 22.921 216.8 23.414 216.63 24.4C216.494 25.386 216.409 26.984 216.375 29.194C216.375 30.86 216.341 32.254 216.273 33.376C216.205 34.464 216.052 35.467 215.814 36.385C215.542 37.371 214.998 38.17 214.182 38.782C213.4 39.394 212.414 39.7 211.224 39.7Z" fill="url(#paint5_linear_4_2)"/>
<rect x="24" y="32" width="5" height="20" rx="2.5" transform="rotate(180 24 32)" fill="white"/>
<rect x="33" y="26.5455" width="5" height="9.09091" rx="2.5" transform="rotate(180 33 26.5455)" fill="white"/>
<rect x="15" y="26.5455" width="5" height="9.09091" rx="2.5" transform="rotate(180 15 26.5455)" fill="white"/>
</g>
<defs>
<linearGradient id="paint0_linear_4_2" x1="0.103466" y1="18.4913" x2="45.9718" y2="18.6437" gradientUnits="userSpaceOnUse">
<stop stop-color="#EC5540"/>
<stop offset="1" stop-color="#F98C3E"/>
</linearGradient>
<linearGradient id="paint1_linear_4_2" x1="54.6911" y1="19.0461" x2="239.098" y2="22.0734" gradientUnits="userSpaceOnUse">
<stop stop-color="#EC5540"/>
<stop offset="1" stop-color="#F98C3E"/>
</linearGradient>
<linearGradient id="paint2_linear_4_2" x1="54.6911" y1="19.0461" x2="239.098" y2="22.0734" gradientUnits="userSpaceOnUse">
<stop stop-color="#EC5540"/>
<stop offset="1" stop-color="#F98C3E"/>
</linearGradient>
<linearGradient id="paint3_linear_4_2" x1="54.6911" y1="19.0461" x2="239.098" y2="22.0734" gradientUnits="userSpaceOnUse">
<stop stop-color="#EC5540"/>
<stop offset="1" stop-color="#F98C3E"/>
</linearGradient>
<linearGradient id="paint4_linear_4_2" x1="54.6911" y1="19.0461" x2="239.098" y2="22.0734" gradientUnits="userSpaceOnUse">
<stop stop-color="#EC5540"/>
<stop offset="1" stop-color="#F98C3E"/>
</linearGradient>
<linearGradient id="paint5_linear_4_2" x1="54.6911" y1="19.0461" x2="239.098" y2="22.0734" gradientUnits="userSpaceOnUse">
<stop stop-color="#EC5540"/>
<stop offset="1" stop-color="#F98C3E"/>
</linearGradient>
<clipPath id="clip0_4_2">
<rect width="231" height="44" fill="white"/>
</clipPath>
</defs>
</svg>
